<svg id="Layer_1" xmlns="http://www.w3.org/2000/svg" viewBox="0 0 577.6 145.6">
  <style>
    .st0{fill:#3E96EE}
  </style>
  <path class="st0" d="M226.8 19.4v98.7l.4.1c1.1.2 2.2.3 3.3.4 1.2.1 2.3.1 3.3.1s2.1 0 3.4-.1c1.1-.1 2.3-.2 3.4-.4l.4-.1V19.4l-.4-.1c-1.1-.2-2.3-.3-3.4-.4-1.3-.1-2.4-.1-3.4-.1s-2.1 0-3.3.1c-1.1.1-2.2.2-3.3.4l-.4.1z"/>
  <path class="st0" d="M226.4 18.4h15v100.7h-15z"/>
  <path class="st0" d="M239.8 82.2l.2.3 25.4 35.5.1.2h.2c1.3.2 2.5.3 3.8.4 1.3.1 2.5.1 3.8.1s2.5 0 3.6-.1 2.4-.2 3.6-.4l.8-.1-.5-.7-25-35.4 21.4-32.4.5-.7-.8-.1c-1.3-.2-2.5-.3-3.7-.4-1.2-.1-2.5-.1-3.8-.1-1.3 0-2.5 0-3.6.1-1.2.1-2.3.2-3.5.4h-.2l-.1.2-22 33-.2.2zM170.8 104.6l-.2.5c-.7 1.8-1.4 3.6-1.9 5.4-.6 1.8-1 3.6-1.2 5.5v.4l.4.1c2.9 1 5.9 1.8 9 2.4 3.7.6 7.5.9 11.3.9 3.9 0 7.9-.5 11.6-1.6 3.3-1 6.3-2.5 9-4.6 2.5-1.9 4.4-4.3 5.8-7.1 2.5-5.4 2.7-11.5.8-17-.8-2-1.9-3.9-3.4-5.5-1.5-1.5-3.2-2.8-5.1-3.8-2-1-4-1.9-6.1-2.6l-5.9-2c-1.6-.5-3.1-1.1-4.4-1.6-1.3-.5-2.5-1.1-3.6-1.9-1-.7-1.8-1.6-2.4-2.6-.6-1.1-.9-2.4-.9-3.6-.2-2.5 1.2-4.7 3.5-5.7 2.7-1.2 5.6-1.7 8.5-1.7 2.9 0 5.8.3 8.6 1 2.4.6 4.7 1.2 7 2l.4.2.2-.4c.8-1.6 1.4-3.3 1.8-5 .5-1.8.8-3.6 1-5.4v-.4l-.4-.1c-2.9-1-5.8-1.8-8.8-2.4-3.4-.7-6.8-1-10.3-1-8.5 0-14.9 1.8-19.4 5.5-4.4 3.7-6.7 8.6-6.7 14.8 0 4.7 1.3 8.4 4 11.2s6.8 5.2 12.6 7.3l4.7 1.7c1.7.5 3.3 1.1 4.7 1.7 1.3.5 2.6 1.2 3.8 2 1 .7 1.9 1.7 2.5 2.8.7 1.3 1 2.7.9 4.2 0 1.4-.4 2.9-1.2 4.1-.8 1.3-1.9 2.3-3.2 3.1-1.4.9-3 1.6-4.7 1.9-1.9.4-3.8.7-5.8.7-5.6 0-11.2-1.1-16.4-3.2l-.1-.2zM417.9 48.7l-.4.1v38.5c0 6.9.9 12.5 2.6 16.7 1.4 3.9 3.9 7.4 7.1 10 3.1 2.4 6.6 4 10.4 4.7 4.1.8 8.3 1.1 12.5 1.1 4.5 0 9.1-.4 13.5-1.2 4.3-.8 8.1-1.7 11.2-2.6l.4-.1V48.8l-.4-.1c-1.1-.2-2.2-.3-3.3-.4-1.2-.1-2.3-.1-3.3-.1s-2.1 0-3.3.1c-1.1.1-2.2.2-3.3.4l-.4.1v58l.4-.5c-3.7 1-7.6 1.5-11.5 1.4-2.7 0-5.3-.3-7.9-.9-2.1-.5-4.1-1.7-5.6-3.2-1.7-1.8-2.9-4-3.5-6.4-.9-3.4-1.3-6.9-1.2-10.5v-38l-.4-.1c-1.1-.2-2.3-.3-3.4-.4-1.3-.1-2.4-.1-3.4-.1s-2.1 0-3.2.1c-1.4.2-2.5.3-3.6.5zM485.5 19.3l-.4.1V100c-.1 3.1.4 6.2 1.5 9.1.9 2.3 2.3 4.3 4.1 5.9 1.8 1.5 3.8 2.6 6.1 3.2 2.4.7 4.9 1 7.3 1 1.5 0 3.2-.1 5-.2 1.6-.1 3.2-.4 4.7-.9l.3-.1v-.4c0-3.5-.4-7-1.2-10.3l-.1-.5-.5.1c-.8.2-1.7.3-2.5.4-1 .1-1.9.1-2.7.1-1.1 0-2.1-.1-3.2-.3-.9-.2-1.8-.7-2.4-1.3-.8-.9-1.4-1.9-1.7-3.1-.5-1.9-.7-3.8-.6-5.7V19.4l-.4-.1c-1.1-.2-2.2-.3-3.3-.4-1.2-.1-2.3-.1-3.3-.1s-2.1 0-3.3.1c-1.1.1-2.2.2-3.4.4zM545.2 119.8c4.9.1 9.8-.9 14.2-2.8 3.9-1.8 7.4-4.4 10.2-7.7 2.8-3.4 4.8-7.3 6-11.5 2.6-9.4 2.6-19.2 0-28.6-1.2-4.2-3.2-8.1-6-11.5-2.8-3.3-6.3-5.9-10.2-7.7-9.1-3.8-19.4-3.8-28.5 0-3.9 1.8-7.4 4.4-10.2 7.8-2.8 3.4-4.8 7.3-6 11.5-2.6 9.4-2.6 19.2 0 28.6 1.2 4.2 3.2 8.1 6 11.5 2.8 3.3 6.3 5.9 10.2 7.7 4.5 1.9 9.4 2.9 14.3 2.7zm0-11.5c-6 0-10.3-2.2-13.1-6.4s-4.2-10.5-4.2-18.3 1.4-13.9 4.2-18.2 7.1-6.4 13.1-6.4 10.3 2.1 13.2 6.4 4.3 10.4 4.3 18.2-1.5 13.9-4.3 18.3-7.3 6.4-13.2 6.4zM407.5 19.3c-1.1-.2-2.2-.3-3.3-.4-1.2-.1-2.3-.1-3.3-.1s-2.1 0-3.2.1-2.3.2-3.4.4l-.4.1V49c-1.8-.5-3.7-.9-5.6-1.2-2.3-.4-4.7-.5-7.1-.5-4.9-.1-9.8.9-14.3 2.7-4.2 1.7-8 4.4-11 7.7-3.1 3.4-5.6 7.5-7.1 11.9-1.7 4.9-2.6 10.1-2.5 15.3 0 6.5.9 11.9 2.8 16.4 3.4 8.3 10.5 14.6 19.2 16.9 4.5 1.2 9.1 1.8 13.8 1.8 4.7 0 9.4-.3 14.1-1 3.8-.6 7.7-1.4 11.4-2.5l.4-.1v-97l-.5-.1zm-13.1 41.5V107c-1.7.5-3.4.8-5.2 1-2.1.2-4.3.3-6.4.3-6.8 0-12.1-1.8-16-5.5s-5.9-9.7-6-18.2c0-3.5.4-7 1.3-10.3.8-3 2.1-5.7 3.9-8.2 1.7-2.3 4-4.2 6.6-5.5 3-1.4 6.2-2.1 9.5-2 2.2 0 4.5.2 6.7.5 1.9.4 3.8 1 5.6 1.7z"/>
  <path class="st0" d="M338.6 66.5c-1.2-3.7-3-7.2-5.6-10.2-2.5-2.9-5.6-5.2-9-6.7-4-1.7-8.3-2.5-12.6-2.5-5-.1-10 .9-14.6 2.9-4 1.8-7.5 4.5-10.2 7.9-2.8 3.4-4.8 7.4-6 11.7-1.3 4.7-2 9.5-2 14.4-.1 4.9.6 9.7 2 14.4 2.6 8.7 9.1 15.8 17.7 18.9 5.2 1.9 10.7 2.8 16.2 2.6 3.9 0 7.9-.3 11.8-.9 3.4-.6 6.7-1.5 9.8-2.9l.3-.1v-.4c-.1-1.9-.4-3.9-.8-5.8-.4-1.7-1-3.4-1.8-5l-.2-.4-.4.2c-5.7 2.2-11.7 3.3-17.8 3.3-7.1 0-12.4-1.7-16-5.1-3.6-3.4-5.5-8.2-5.7-15.5h46.5v-.5c.1-1 .2-2.2.3-3.5s.1-2.7.1-4c-.1-4.4-.7-8.7-2-12.8zm-45.9 10.8h-.1l.1-.6c.6-5.9 2.4-10.6 5.4-14s7.3-5.1 12.9-5.1c2.6-.1 5.1.5 7.4 1.6 2 1 3.7 2.4 5.1 4.2 1.4 1.8 2.4 3.9 3 6.1.7 2.4 1 4.8 1 7.3v.5h-34.8zM145.6 14.5C145.6 6.5 139 0 131 0H14.6C6.5 0 0 6.5 0 14.6V131c0 8 6.5 14.6 14.6 14.6h116.5c8 0 14.5-6.6 14.5-14.6V14.5zm-101 11h56.2s19.2 0 19.2 19.1H25.4s0-19.1 19.2-19.1zM101 63.2c19.1 0 19.1 19.1 19.1 19.1H44.7s-19.2 0-19.2-19.1H101zm-.1 56.9H44.7s-19.2 0-19.2-19.1h94.7s0 19.1-19.3 19.1z"/>
</svg>